# xmcd CD database file
#
# Track frame offsets:
#	150
#	27577
#	43387
#	62232
#	75974
#	119809
#	141712
#	153839
#	199380
#	221544
#
# Disc length: 3360 seconds
#
# Revision: 1
# Processed by: cddbd v1.5.1PL0 Copyright (c) Steve Scherf et al.
# Submitted via: CDex 1.51
#
DISCID=9d0d1e0a
DTITLE=Sonny Rollins - BEST SELLERS JAZZ Sonny Rollins
DYEAR=1900
DGENRE=Jazz
TTITLE0=MY ONE AND ONLY LOVE
TTITLE1=LOVE LETTERS
TTITLE2=TRAV'LIN' LIGHT
TTITLE3=AUTUMN NOCTURNE
TTITLE4=ALFIE
TTITLE5=ROCK-A-BYE YOUR BABY WITH A DIXIE MELODY
TTITLE6=ON A SLOW BOAT TO CHINA
TTITLE7=MORITAT
TTITLE8=I'VE GROWN ACCUSTOMED TO HER FACE
TTITLE9=ST.THOMAS
EXTD=
EXTT0=
EXTT1=
EXTT2=
EXTT3=
EXTT4=
EXTT5=
EXTT6=
EXTT7=
EXTT8=
EXTT9=
PLAYORDER=
